<?xml version="1.0" encoding="UTF-8"?>
<!DOCTYPE svg PUBLIC "-//W3C//DTD SVG 1.1//EN" "http://www.w3.org/Graphics/SVG/1.1/DTD/svg11.dtd">
<!-- Creator: CorelDRAW -->
<svg xmlns="http://www.w3.org/2000/svg" xml:space="preserve" width="152.4mm" height="152.4mm" version="1.1" style="shape-rendering:geometricPrecision; text-rendering:geometricPrecision; image-rendering:optimizeQuality; fill-rule:evenodd; clip-rule:evenodd"
viewBox="0 0 15240 15240"
 xmlns:xlink="http://www.w3.org/1999/xlink">
 <defs>
  <style type="text/css">
   <![CDATA[
    .fil0 {fill:#F7631C}
   ]]>
  </style>
 </defs>
 <g id="Layer_x0020_1">
  <metadata id="CorelCorpID_0Corel-Layer"/>
  <g id="_105554116449056">
   <path class="fil0" d="M7403.45 8917.98l1095.34 -1102.69 993.68 886.41c678.37,671.16 1477.27,770.1 531.47,1734.2 -162.99,166.14 -473.12,437.9 -793.09,442.56 -219.55,3.21 -524.35,-449.7 -652.25,-618.87 -95.35,-126.12 -175.84,-199.64 -274.03,-326.33l-901.12 -1015.28zm2933.98 -134.95c-48.1,-38.45 -238.96,-211.37 -286.78,-277.83l484.9 169.88 -198.12 107.95zm-4015.65 -946.72c-242.13,-173.22 -431.07,-401.36 -676.63,-597.7 -136.53,-109.14 -199.32,-196.89 -339.96,-302.19 -119.43,-89.44 -210.6,-183.67 -323.62,-276.45 -276.21,-226.72 -626.28,-432.76 -621.55,-650.43 6.95,-320.94 277.06,-630.11 443.84,-793.72 147.83,-145.03 544.21,-469.56 829.46,-439.89 165.79,17.24 930.06,1056.59 1201.07,1318 159.69,154.02 178.87,200.11 302.6,339.66 78.59,88.64 198.62,182.36 287.48,307.37l-1102.69 1095.35zm255.87 -3122.22l156.67 475.09c-66.23,-47.9 -239.14,-238.75 -291.14,-295.54l134.47 -179.55zm-469.99 -260.09c-284.52,-151.91 -436.41,-260.17 -841.31,-103.25 -670.63,259.92 -1432.56,957.12 -1405.63,1698.23 15,413.2 346.04,636.13 674.37,887.48l1337.22 1189.43c-187.13,122.39 -427.42,227.2 -642.12,300.18 -238.18,80.96 -605.61,91.13 -738.88,158.49 -14.28,173.28 48.35,202.88 163.92,285.24 195.1,139.04 164.47,90.31 230.87,236.52 -133.85,81.36 -466.93,308.2 -428.25,519.3 314.04,171.15 1024.2,-97.87 1330.98,-174.69 -76.82,306.78 -345.84,1016.94 -174.69,1330.98 211.1,38.68 437.94,-294.4 519.3,-428.25 304.23,138.17 205.68,420.83 521.76,394.79 99.24,-196.34 38.78,-738.98 458.66,-1381l490.43 539.75c186.3,199.46 312.13,333.2 481.76,543.96 356.41,442.86 677.47,934.23 1148.48,929.03 811.31,-8.94 2174.69,-1318.33 1551.23,-2248.09 223.2,-241.83 677.56,-229.64 580.92,-682.2 -137.45,-112.87 -1356.74,-484.5 -1680.77,-627.62 -250.06,-110.45 -539.72,-251.85 -761.29,-393.48 -156.96,-100.33 -1025.89,-971.05 -1129.79,-1140.48 -134.5,-219.3 -281.73,-509.01 -389.88,-765.09 -130.5,-308.97 -511.73,-1524.27 -615.09,-1650.15 -452.56,-96.65 -440.37,357.72 -682.2,580.92z"/>
  </g>
 </g>
</svg>
