<?xml version="1.0" encoding="UTF-8"?>
<!DOCTYPE svg PUBLIC "-//W3C//DTD SVG 1.1//EN" "http://www.w3.org/Graphics/SVG/1.1/DTD/svg11.dtd">
<!-- Creator: CorelDRAW -->
<svg xmlns="http://www.w3.org/2000/svg" xml:space="preserve" width="152.4mm" height="152.4mm" version="1.1" style="shape-rendering:geometricPrecision; text-rendering:geometricPrecision; image-rendering:optimizeQuality; fill-rule:evenodd; clip-rule:evenodd"
viewBox="0 0 15240 15240"
 xmlns:xlink="http://www.w3.org/1999/xlink">
 <defs>
  <style type="text/css">
   <![CDATA[
    .fil0 {fill:#F7631C}
   ]]>
  </style>
 </defs>
 <g id="Layer_x0020_1">
  <metadata id="CorelCorpID_0Corel-Layer"/>
  <g id="_105553919856032">
   <path class="fil0" d="M5820.15 8386.69l569.96 1.59c0.14,98.73 12.08,504.19 -5.76,568.55l-563.86 -1.49 -0.34 -568.65zm882.98 563.41c-98.26,0 -105.05,-99.1 -2.52,-99.1l1091.07 0c65.87,0 76.77,28.88 63.33,85.44 -76.21,30.15 -995.48,13.66 -1151.88,13.66zm917.21 -459.02c-152.03,0 -953.72,18.97 -981.08,-20.28 -74.38,-106.7 179.91,-79.12 235.22,-79.12 181.59,0 907.31,-15.18 980.47,13.6 26.83,112.81 -70.27,85.8 -234.61,85.8zm611.67 68.06c-0.27,-66.63 -11.5,-57.47 -45.83,-91.36 -299.72,-295.84 -206.72,-779.38 130.15,-976.07 556.5,-324.93 1178.6,319.37 842.62,863.03 -44.18,71.49 -129.47,152.25 -132.6,164.86l-1.36 790.16c-80.64,-15.5 -327.72,-172.71 -389.65,-179.65 -35.88,-4.02 -330.94,156.13 -403.93,180.52l0.6 -751.49zm-2408.7 -1092.75l566.4 0.41 -0.7 569.64 -568.97 -4.15 3.27 -565.9zm879.82 565.46c-103.2,0 -102.12,-99.88 0,-99.88l1078.48 0c107.97,0 117.8,99.91 0,99.88l-1078.48 0zm1151.86 -544.71c27.92,111.79 -51.81,85.56 -234.65,85.56 -152.29,0 -952.49,19.14 -980.42,-20.05 -76.38,-107.21 179.24,-79.39 234.56,-79.39 175.12,0 915.76,-14.18 980.51,13.88zm1357.86 -563.61c107.99,0 106.55,93.92 19.86,99.83 -72.38,4.93 -166.74,-0.26 -241.6,-0.26 -483.8,0 -967.6,0 -1451.4,0 -531.84,0 -1167.59,10.45 -1693.82,0.66 -100.19,-1.86 -110.79,-100.23 0.51,-100.23l3366.45 0zm-19.57 -628.08c157.07,-0.94 87.54,85.02 75.09,91.69 -40.09,21.47 -2837.65,3.73 -3391.96,8.49 -164.99,1.42 -104.69,-81.55 -67.14,-96.27 35.08,-13.75 2829.52,-0.58 3384.01,-3.91zm-3417.01 -547.19c-17.39,-106.45 62.41,-80.78 150.75,-80.62 566.48,1.02 3288.25,-18.7 3359.26,14.18 23.99,104.77 -46.29,85.61 -133.88,85.21l-2489.59 -0.04c-149.81,0 -812.09,25.02 -886.54,-18.73zm-595.96 3803.54l3746.85 1.51c20.61,105.76 -32.45,431.47 125.43,699.49 117.93,200.2 359,227.12 588.68,97.15 217.38,-123.02 193.08,-332 193.08,-630.42 0,-1382.04 -17.14,-2793.04 0.4,-4167.27l594.92 -0.39c29.64,-177.87 -61.57,-412.77 -140.26,-519.16 -84.55,-114.31 -247,-211.82 -451.56,-218.94 -434.46,-15.14 -902.3,0.82 -1340.62,0.82 -668.59,0 -1337.18,0 -2005.76,0 -190.96,0 -495.31,-17.8 -673.13,9.17 -380.56,57.72 -635.27,284.23 -637.86,701.02 -8.35,1339.11 8.15,2685.61 -0.17,4027.02z"/>
   <path class="fil0" d="M4844.34 9689.28c-67.39,189.61 -68.39,564.26 152.05,709.4 69.32,45.65 187.66,29.75 285.57,29.75l3124.56 0c197.95,0 432.41,11.37 625.98,-2.79 -91.62,-56.79 -167.11,-52.13 -238.45,-276.15 -50.56,-158.8 -46.3,-294.48 -48.88,-466.67 -103.78,-10.62 -1797.05,-2.35 -1951.33,-2.35l-1461.48 0c-94.5,0 -428.78,-17.83 -488.02,8.81z"/>
   <path class="fil0" d="M8543.08 7611.58c-206.7,48.2 -393.91,236.29 -333.52,509.98 44.91,203.54 250.97,381.98 508.73,327.82 203.74,-42.81 383.47,-248.38 329.87,-511.16 -40.99,-200.94 -252.97,-385.42 -505.08,-326.64z"/>
  </g>
 </g>
</svg>
