<?xml version="1.0" encoding="UTF-8"?>
<!DOCTYPE svg PUBLIC "-//W3C//DTD SVG 1.1//EN" "http://www.w3.org/Graphics/SVG/1.1/DTD/svg11.dtd">
<!-- Creator: CorelDRAW -->
<svg xmlns="http://www.w3.org/2000/svg" xml:space="preserve" width="152.4mm" height="152.4mm" version="1.1" style="shape-rendering:geometricPrecision; text-rendering:geometricPrecision; image-rendering:optimizeQuality; fill-rule:evenodd; clip-rule:evenodd"
viewBox="0 0 15240 15240"
 xmlns:xlink="http://www.w3.org/1999/xlink">
 <defs>
  <style type="text/css">
   <![CDATA[
    .fil0 {fill:#F7631C}
   ]]>
  </style>
 </defs>
 <g id="Layer_x0020_1">
  <metadata id="CorelCorpID_0Corel-Layer"/>
  <g id="_105553853574688">
   <path class="fil0" d="M4004.48 11054.04l0 0zm0 0l-71.88 -281.78c-13.55,-285.63 105.72,-729.82 67.77,-1089.56 -24.8,-235.14 -84.46,-371.27 -227.85,-513.09 -137.31,-135.8 -306.91,-229.63 -402.96,-373.06 13.66,-164.17 91.92,-203.99 103.66,-357.13 12.23,-159.42 -73.1,-301.87 -156.41,-401.41l-32.63 -37.91c-4.92,-5.34 -11.98,-13.04 -17.04,-18.23l-247 -211.56c-176.02,-151.38 -474.97,-344.57 -614.4,-552.54 -113.8,-169.75 28.13,-337.66 192.16,-639.09l931.41 -1114.44c255.03,-205.27 749.35,-550.7 1039.55,-618.31 227.35,339.51 325.8,313.49 458.55,564.38 -665.4,0 -1406.49,377.56 -1656.16,777.7 -224.24,359.4 -514.02,247.2 -673.03,561.57 -61.99,122.56 -53.73,395.8 27.02,504.34 95.37,128.17 253.6,166.97 467.96,166.97 0,695.68 453.58,582.59 813.76,597.17 188.8,7.65 217.31,74.48 301.08,192.75 171.49,242.14 155.08,352.95 392.6,559.77 94.5,82.28 486.38,310.7 608.96,343.43 -73.47,315.34 -503.28,697.29 -714.29,908.29 -336.8,336.79 -590.83,555.89 -590.83,1031.74zm2363.32 -6525.57c56.25,26.99 406.37,68.6 493.83,70.55 -53.09,72.45 -170.74,117.78 -293.63,126.31 -156.38,10.86 -179.74,-37.34 -200.2,-196.86zm-4797.18 4056.44c0,373.64 41.22,667.45 118.01,975.47 20.67,82.92 24.16,153.73 45.32,236.85 20.75,81.49 43.18,131.57 70.23,211.97 59.49,176.8 87.32,256.24 158.13,406.24l31.45 74.37c155.23,368.04 574.34,994.04 862.16,1254.24 426.89,385.91 736.34,670.26 1299.17,923.05l822.23 306.52c1771.04,449.93 1494.44,-355.3 1074.93,-369.46 -869.96,-29.35 -1464.26,-217.92 -2160.42,-661.45 -536.64,-341.9 -1039.53,-872.34 -1339.07,-1447.53 -438.07,-841.22 -571.36,-1602.42 -433.96,-2527.28 14.99,-100.91 -5.06,-174.68 59.57,-203.49 57.18,-25.49 332.2,247.78 445.64,331.48 111.59,82.32 181.19,204.43 322.27,242.1 -4.89,219.85 -105.82,170.03 -105.82,423.28 0,515.15 670.2,636.19 670.2,952.38 0,642.64 -245.1,1238.16 154.81,1749.95 343.68,439.83 868.11,430.92 868.11,48.99 0,-691.26 -117.23,-550.65 176.07,-882.13l296.51 -303.14c5.12,-5.13 12.41,-12.6 17.42,-17.85 38.88,-40.65 53.69,-65.24 101.26,-110.38 227.76,-216.13 174.96,-133.69 397.17,-449.39 628.43,-892.78 118.94,-970.11 -373.82,-1285.57 -108.14,-69.24 -148.33,-100.81 -216.6,-206.68 -163,-252.77 -315.21,-581.32 -579.02,-690.82 -320.14,-132.87 -490.12,-39.92 -665.55,-39.92 0,-221.64 1.05,-591.77 -352.73,-599.65l0 -70.55c475.27,-110.72 230.81,-402.2 1009.98,-788.96 458.48,-227.58 959.14,-6.97 1187.48,-364.55 266.72,-417.68 -339.17,-839.46 -469.07,-1033.43 202.7,-4.52 311.53,-105.82 670.2,-105.82 229.32,0 109.15,670.19 811.29,670.19 468.46,0 908.85,-423.28 952.38,-423.28 428.11,0 899.54,658.9 1144.14,332.85 251.66,-335.45 -382.07,-569.45 -668.24,-702.94 -1293.04,-603.16 -2937.41,-523.52 -4160,213.32 -461.66,278.24 -570.47,374.65 -945.56,747.57l-379.56 431.73c-594.68,831.15 -916.71,1702.46 -916.71,2751.72z"/>
   <path class="fil0" d="M8660.57 12606.07c16.68,-200.46 104.55,-380.67 155.39,-585.35 53.24,-214.33 110.99,-381.53 162.14,-578.6 61.39,-236.53 313.38,-1019.65 317.39,-1199.37l3174.6 0c-18.09,217.44 -174.48,631.43 -239.75,889 -32,126.26 -49.89,177.06 -85.12,302.89 -50.8,181.45 -113.51,401.24 -173.18,602.83 -27.81,93.99 -47.52,192.09 -82.25,305.75 -80.36,262.96 -44.12,213.44 -137.71,250.3 -92.19,36.31 -2749.24,12.55 -3091.51,12.55zm-2257.5 -2433.86c0,806.47 -153.68,1701.13 678.11,2002.66 268.73,97.42 934.97,2.95 1080.72,50.06 106.84,34.53 58.79,361.32 -169.43,383.24 -195.69,18.79 -531.51,-1.96 -742.84,-2.11 -279.24,-0.19 -510.51,-58.67 -603.6,140.64 -75.36,161.38 16.17,353.2 321.42,353.2l4938.27 0c353.57,0 332.08,-187.5 388.11,-387.91 28.63,-102.41 41.14,-109.25 70.51,-211.67l705.4 -2539.75c0,-138.18 -131.24,-246.92 -282.19,-246.92l-3597.88 0c-336.39,0 -327.22,350.03 -418.89,639.32 -33.22,104.84 -64.76,155.45 -74.94,277.79l-670.19 0c0,-388.81 53.51,-634.92 -317.46,-634.92 -350.77,0 -153.77,929.29 -153.63,929.64 109.31,284.23 512.98,199.11 1000.19,199.11 -24.19,103.82 -56.36,161.73 -91.54,296.46 -38.22,146.33 -74.18,175.16 -84.83,303.18 -420.84,0 -1042.72,69.65 -1272.46,-103.2 -85.71,-64.49 -173.75,-175.51 -173.75,-320.08l0 -1234.56c0,-523.9 510.12,-987.66 1093.48,-987.66l1798.94 0c191.94,0 364.09,63.32 504.09,130.83 312.54,150.7 191.41,279.35 589.38,186.63 54.09,-112.71 91.82,-204.88 24.47,-339.29 -101.95,-203.46 -674.93,-471.99 -1012.12,-471.99l-1975.31 0c-892.96,0 -1552.03,793.57 -1552.03,1587.3z"/>
   <path class="fil0" d="M10000.96 4457.93l0 -1481.49c0,-174.34 143.11,-317.46 317.46,-317.46l2610.22 0c112.33,0 246.92,179.74 246.92,317.46l0 1481.49c0,473.49 -665.08,356.74 -1200.24,351.78 -585.06,-5.42 -442.89,295.33 -951.44,635.87 0,-995.53 -369.04,-484.13 -814.84,-666.64 -116.63,-47.75 -208.08,-165.38 -208.08,-321.01zm-493.83 -1552.03l0 1657.85c0,339.75 324.19,701.5 746.9,734.58 289.5,22.65 280.29,-97.72 274.58,466.15 -1.27,126.01 -6.08,223.92 47.89,304.85 181.24,271.79 451.34,99.35 597.53,-50.32l580.67 -583.35c168.34,-176.81 149.41,-134.03 468.2,-131.46 597.34,4.83 1446.49,91.67 1446.49,-881.55l0 -1375.66c0,-603.96 -450.06,-917.11 -776.02,-917.11l-2504.41 0c-494.23,0 -881.83,369.43 -881.83,776.02z"/>
   <path class="fil0" d="M8872.21 7879.44c-341.58,0 -684.48,-271.52 -846.59,-529.07 -186.51,-296.32 -154.79,-825.69 145.46,-1159.71 6.86,-7.63 26.27,-29.79 33.44,-37.11 5.07,-5.18 12.25,-12.77 17.49,-17.79 5.23,-5.02 12.73,-12.28 18.15,-17.11 164.93,-146.89 547.43,-285.06 667.32,-285.06 195.45,0 526.29,147.16 708.76,314.17 583.76,534.28 284.3,1731.68 -744.03,1731.68zm-1446.21 -1164.02c0,355.77 -23.9,563.03 172.46,885.74 546.05,897.38 1660.49,1036.92 2394.07,305.13 606.68,-605.22 534.85,-1536.7 -36.39,-2133.7l-308.91 -220.2c-560.23,-327.64 -1345.48,-219.78 -1794.77,249.1 -201.46,210.26 -426.46,526.24 -426.46,913.93z"/>
   <path class="fil0" d="M11799.9 3717.18l0 -105.82c-70.99,-47.53 -142.38,-141.09 -246.92,-141.09 -192.29,0 -363.73,265.92 -188.51,434.82 154.33,148.76 435.43,83.55 435.43,-187.91z"/>
   <path class="fil0" d="M10671.15 3717.18c0,128.81 73.63,245.23 186.05,266.37 142.28,26.75 226.06,-70.55 307.78,-125.27 0,-152.58 20.36,-240.5 -70.65,-317.36 -179.43,-151.53 -423.18,-16.81 -423.18,176.26z"/>
   <path class="fil0" d="M11940.99 3611.36l0 246.92c85.45,57.22 140.67,141.26 272.74,126.97 52.54,-5.69 108.03,-33.72 141.03,-64.76 180.48,-169.72 19.62,-450.22 -166.86,-450.22 -104.53,0 -175.92,93.56 -246.91,141.09z"/>
  </g>
 </g>
</svg>
