<?xml version="1.0" encoding="UTF-8"?>
<!DOCTYPE svg PUBLIC "-//W3C//DTD SVG 1.1//EN" "http://www.w3.org/Graphics/SVG/1.1/DTD/svg11.dtd">
<!-- Creator: CorelDRAW -->
<svg xmlns="http://www.w3.org/2000/svg" xml:space="preserve" width="152.4mm" height="152.4mm" version="1.1" style="shape-rendering:geometricPrecision; text-rendering:geometricPrecision; image-rendering:optimizeQuality; fill-rule:evenodd; clip-rule:evenodd"
viewBox="0 0 15240 15240"
 xmlns:xlink="http://www.w3.org/1999/xlink">
 <defs>
  <style type="text/css">
   <![CDATA[
    .fil0 {fill:#F7631C}
   ]]>
  </style>
 </defs>
 <g id="Layer_x0020_1">
  <metadata id="CorelCorpID_0Corel-Layer"/>
  <g id="_105553914278880">
   <path class="fil0" d="M7502.9 7147.26l236.28 0.25c-1,340.96 -32.86,186.21 219.82,280 168.5,62.54 365.4,236.41 375.57,393.47l-364.79 116.88c-51.55,-81.5 -42.7,-108.24 -116.97,-158.76 -137.56,-93.58 -488.72,-98.15 -471.93,127.81 13.88,186.78 340.14,176.39 615.23,269.47 541.47,183.19 491.54,822.67 82.98,1048.85 -47.93,26.54 -97.26,44.54 -155.47,61.09 -223.32,63.5 -182.92,-65.92 -184.72,314.81l-235.85 -0.16c-0.22,-58.24 14.78,-241.64 -8.9,-274.8 -27.76,-28.75 -246.09,-21.3 -424.51,-164.65 -80.33,-64.55 -196.95,-203.99 -219.29,-360.18l402.22 -88.67c52.59,88.48 61.74,202.13 263.33,246.95 361.06,80.28 509.34,-161.16 391.11,-291.6 -137.08,-151.23 -682.22,-93.23 -877.38,-399.89 -110.19,-173.14 -112.07,-417.21 1.81,-601.14 125.77,-203.14 271.18,-231.05 471.14,-286.65l0.32 -233.08zm-1533.56 1369.51c106.77,1614.42 2046.04,2251.46 2985.34,925.81 239.89,-338.57 419.59,-895.8 254.16,-1389.07 -135.31,-403.48 -458.04,-832.08 -677.01,-1110.36 -89.57,-113.83 -316.46,-396.86 -382.82,-511.36 -40.23,-69.41 -37.04,-90.22 -139.67,-89.79l-658.52 0.4c-247.7,-0.01 -180.99,1.82 -291.7,163.7 -363.29,531.19 -1139.89,1252.94 -1089.78,2010.67z"/>
   <path class="fil0" d="M8167.28 6032.54c55.6,-180.23 140.19,-364.41 223.93,-532.45 31.49,-63.19 135.18,-207.9 26,-240.54 -31.61,-9.44 -536.85,108.92 -625.76,122.34 -449.89,67.91 -886.03,-291.39 -992.74,-299.55 -51.6,-3.94 -90.89,38.13 -83.89,94.67 0.66,5.33 222.48,439.83 251.19,502.53 40.03,87.45 79.87,179.83 111.31,272.09 100.63,295.26 -12.73,242.74 509.3,242.74 565.25,0 516.93,44.77 580.66,-161.83z"/>
  </g>
 </g>
</svg>
