<?xml version="1.0" encoding="UTF-8"?>
<!DOCTYPE svg PUBLIC "-//W3C//DTD SVG 1.1//EN" "http://www.w3.org/Graphics/SVG/1.1/DTD/svg11.dtd">
<!-- Creator: CorelDRAW -->
<svg xmlns="http://www.w3.org/2000/svg" xml:space="preserve" width="152.4mm" height="152.4mm" version="1.1" style="shape-rendering:geometricPrecision; text-rendering:geometricPrecision; image-rendering:optimizeQuality; fill-rule:evenodd; clip-rule:evenodd"
viewBox="0 0 15240 15240"
 xmlns:xlink="http://www.w3.org/1999/xlink">
 <defs>
  <style type="text/css">
   <![CDATA[
    .str0 {stroke:#F7631C;stroke-width:7.62;stroke-miterlimit:22.9256}
    .fil0 {fill:#F7631C}
   ]]>
  </style>
 </defs>
 <g id="Layer_x0020_1">
  <metadata id="CorelCorpID_0Corel-Layer"/>
  <g id="_105553852597504">
   <path class="fil0" d="M4333.6 5717.03c0,72.98 12.9,74.5 27.02,135.1 307.01,0 145.76,-161.39 601.21,-614.65 29.28,-29.13 37.6,-37.82 65.96,-69.13l244.33 -242.01c92.52,-93.29 233.13,-197.06 347.04,-274.4 684.99,-465.12 1301.82,-610.08 2199.89,-610.08 988.61,0 2012.68,578.22 2629.37,1342.42 105.57,130.83 181.68,229.15 270.39,378.06 92.61,155.45 152.51,286.19 234.44,441.03 -71.03,37.59 -126.66,68.38 -191.23,105.99 -382.04,222.51 -11.65,302.59 595.12,651.94 1010,581.52 919.66,654.6 946.19,-272.46 5.31,-185.34 57.76,-528.59 55.19,-809.42 -1.57,-171.95 77.56,-432.58 -81.34,-432.58 -159.71,0 -214.78,148.51 -378.26,162.12 -267.87,-506.24 -191.81,-482.04 -405.29,-432.3 0,235.83 17.98,141.78 135.3,378.06 61.51,123.88 114.25,239.92 188.93,351.45 171.68,-14.29 174.1,-100.12 324.23,-135.1 0,158.14 -24.05,184.62 -27.87,323.38l-53.19 1000.55c-181.53,-96.05 -1029.44,-531.48 -1107.78,-648.45 397.51,-106.14 217.33,-338.09 18.7,-694.18 -96.53,-173.04 -180.41,-304.75 -300.01,-456.52 -564.78,-716.73 -1414.85,-1269.71 -2335.27,-1420.37 -691.88,-113.25 -1117.81,-96.46 -1803.48,96.37 -739.44,207.96 -1465.02,734.79 -1929.72,1339.58 -28.98,37.73 -269.87,384.64 -269.87,405.6z"/>
   <path class="fil0" d="M2901.6 9364.6c80.26,0 271.08,-132.42 378.26,-189.14 20.52,88.07 151,405.29 243.17,405.29 119.07,0 135.1,4.74 135.1,-108.08 0,-37.21 -262.27,-515.22 -297.21,-567.4 -171.68,14.29 -174.1,100.12 -324.23,135.1l81.06 -1323.93 541.78 295.81c109.5,63.14 466.97,275.54 566,298.61l0 54.04c-413.98,110.53 -192.82,356.13 -27.2,675.64 558.79,1077.97 1906.17,1945.2 3161.4,1945.2l405.28 0c696.27,0 1476.96,-348.04 1902.69,-637.1 370.42,-251.52 717.06,-576.29 972.37,-945.98 177.89,-257.6 378.89,-497.39 97.03,-497.39 -88.98,0 -114.01,145.48 -254.51,339.91 -83.77,115.92 -181.26,245.76 -278.72,342.72 -310.11,308.51 -310.16,338.96 -666.43,576.44 -1001.15,667.33 -2096.76,767.01 -3235.1,392.74 -554.46,-182.3 -1211.43,-655.65 -1563.69,-1111.19 -312.23,-403.76 -272.83,-383.69 -513.12,-837.82 516.64,-345.97 564.36,-200.46 -403.89,-757.93 -115.46,-66.48 -720.51,-430.91 -811.97,-430.91 -94.73,0 -105.96,63.22 -109.91,160.27l-53.05 811.56c-5.75,208.77 -28.14,355.73 -26.45,540.96 1.57,171.95 -77.56,432.58 81.34,432.58z"/>
   <path class="fil0" d="M10926.24 8445.95c0,83.18 37.43,81.06 108.07,81.06 148.6,0 241.56,-549.08 243.17,-621.44 178.32,0 523.67,45.69 675.48,81.06 -264.93,1137.17 -754.67,2040.45 -1705.92,2752.22 -281.61,210.72 -622.71,422.31 -953.15,559.91 -1322.92,550.92 -2801.47,485.33 -4030.35,-243.26 -378.13,-224.19 -836.23,-586.23 -1111.1,-915.32 -56.46,-67.6 -79.45,-118.22 -150.44,-176.92 -73.65,-60.92 -433.95,-123.03 94.85,448.66 744.19,804.57 2048.22,1465.44 3208.84,1465.44 812.5,0 1201.65,-18.06 1972.44,-324.17l319.19 -140.13c301.79,-143.84 563.8,-320.3 831.02,-519.94 133.27,-99.55 198.65,-172.93 324.38,-270.03 65.75,-50.79 96.93,-86.75 153.67,-143.54 71.54,-71.6 86.42,-105.77 148.63,-175.6 404.4,-454.01 662.26,-882.14 906.06,-1498.62 43.49,-109.98 259.28,-839.92 229.86,-948.18 -33.98,-125.05 -883.63,-194.75 -1021.53,-194.75 -91.98,0 -243.17,783.27 -243.17,783.55z"/>
   <path class="fil0" d="M3009.67 7013.94c87.03,20.28 938.37,146.41 993.65,131.21 120.93,-33.28 116.56,-274.41 152.74,-416.82 49.19,-193.6 117.35,-238.37 69.47,-443.9l-162.12 0c-23.06,98.99 -60.51,158.03 -92.24,286.03 -27.44,110.7 -67.35,222.25 -69.87,335.41 -244.27,0 -458.66,-63.02 -675.48,-81.06 55.58,-667.83 536.53,-1499.78 933.87,-2011.2 344.36,-443.23 1000.35,-973.34 1497.84,-1204.06 1047.04,-485.59 2126.85,-606.98 3258.2,-286.11 515.05,146.08 1028.03,422.31 1451.1,737.44l659.42 610.47c74.28,90.5 74.63,154.06 197.19,154.06 111.07,0 123.45,-99.19 73.61,-177.65 -24.09,-37.92 -111.18,-128.36 -150.63,-177.63 -68.1,-85.04 -249.79,-266.31 -339.66,-335.82 -632.36,-489.08 -810.5,-685.1 -1714.18,-987.72 -1075.03,-360 -2417.17,-268.5 -3426.19,201.62 -357,166.34 -677.47,377.68 -978.04,616.08 -705.9,559.89 -1231.15,1313.01 -1520.38,2181.23 -64.43,193.42 -207.54,657.06 -158.3,868.42z"/>
   <path class="fil0" d="M7846.07 6905.87l0 594.42 -459.32 0c24.67,-92.42 150.94,-223.37 212.6,-300.76 54.47,-68.36 191.47,-253.18 246.72,-293.66zm-945.66 756.53c0,211.44 609.11,135.1 945.66,135.1 0,135.76 -35.38,324.22 162.11,324.22 64.96,0 79.43,-43.77 135.1,-81.05l0 -243.17c218.14,-50.83 235.06,-291.98 0,-297.21l0 -1053.74c0,-81.98 -97.47,-142.74 -178.1,-125.25 -101.78,22.07 -413.38,450.13 -485.7,542.21l-455.75 570.97c-60.92,75.97 -123.32,106.5 -123.32,227.92z"/>
   <path class="fil0" d="M5495.42 6662.7c40.52,76.59 74.23,109.21 135.09,162.11 257.75,-60.04 137.56,-189.13 459.33,-189.13 225.63,0 270.19,178.54 270.19,351.25 0,170.39 -258.75,328.16 -438.56,507.11 -86.33,85.92 -152.98,123.25 -243.75,215.57 -153.25,155.88 -209.32,142.11 -209.32,277.02 0,63 72.09,135.09 135.09,135.09 279.76,0 777.79,30.98 1026.73,-27.02 69.8,-145.48 52.41,-151.57 -27.02,-270.19l-594.42 0c31.29,-42.7 176.96,-163.73 236.03,-223.29 134.44,-135.55 595.09,-409.2 377.83,-903.91 -213.89,-487.04 -877.64,-506.29 -1127.22,-34.61z"/>
   <path class="fil0" d="M8710.68 6365.49c-61.44,263.71 -27.02,1230.04 -27.02,1567.1 0,214.39 295.82,303.44 299.96,2.75 1.45,-105.96 -2.36,-220.26 -3.12,-327.35 -5.03,-709.46 517.75,-501.69 541.25,-216.28 15.31,185.86 -0.5,453.95 -0.5,648.96 80.8,54.1 54.8,81.05 162.11,81.05 204.14,0 135.1,-427.45 135.1,-756.53 0,-299.87 -264.13,-540.38 -567.4,-540.38 -136.58,0 -143.53,43.5 -270.19,54.04l0 -486.34c-116.61,-78.09 -126.58,-98.23 -270.19,-27.02z"/>
   <path class="fil0" d="M10223.74 7419.23c0,205.66 336.46,135.1 756.53,135.1 130.91,0 183.77,-243.18 -54.03,-243.18 -270.33,0 -702.5,-58.67 -702.5,108.08z"/>
   <path class="fil0" d="M7467.8 9959.02c0,299.67 -47.93,578.06 63.54,692.99l29.28 24.78c2.94,2.55 10.41,7.53 15.26,11.74 198.95,-105.27 135.1,-219.98 135.1,-729.51 0,-221.83 -243.18,-221.83 -243.18,0z"/>
   <path class="fil0 str0" d="M7576.93 4234.3c-48.16,198.88 -48.16,632.09 -1.05,834.28 283.26,65.99 216.15,-142.47 216.15,-675.48 0,-109.97 -42.67,-145.33 -108.07,-189.13l-107.03 30.33z"/>
   <path class="fil0" d="M4279.56 7581.34c717.17,0 816.8,69.54 756.54,-189.13 -235.07,-54.76 -512.16,-27.02 -756.54,-27.02 -123.17,0 -155.71,216.15 0,216.15z"/>
   <path class="fil0" d="M9332.12 5690.01c132.05,0 158.11,-110.76 249.58,-209.73 89.76,-97.11 209.74,-149.37 209.74,-276.61 0,-102.52 -103.81,-118.94 -178.02,-73.59 -0.16,0.1 -617.26,559.93 -281.3,559.93z"/>
   <path class="fil0" d="M5495.42 9904.98c205.81,47.95 194.59,-20.14 305.24,-154.09 87.86,-106.37 235.14,-168.97 235.14,-305.24 0,-105.11 -91.48,-118.48 -160.61,-84.48 -71.55,35.19 -162.32,180.71 -293.31,306.04 -93.84,89.77 -86.46,68.17 -86.46,237.77z"/>
   <path class="fil0" d="M5414.36 5149.64c0,96.31 319.4,486.34 459.32,486.34 179.74,0 72.37,-187.23 -46.82,-304.42 -6.25,-6.14 -412.5,-461.82 -412.5,-181.92z"/>
   <path class="fil0" d="M9170 9391.62c0,84.24 115.3,208.41 181.83,277.49 18.91,19.62 358.55,383.66 358.55,127.79 0,-172.19 -540.38,-695.6 -540.38,-405.28z"/>
  </g>
 </g>
</svg>
