<?xml version="1.0" encoding="UTF-8"?>
<!DOCTYPE svg PUBLIC "-//W3C//DTD SVG 1.1//EN" "http://www.w3.org/Graphics/SVG/1.1/DTD/svg11.dtd">
<!-- Creator: CorelDRAW -->
<svg xmlns="http://www.w3.org/2000/svg" xml:space="preserve" width="152.4mm" height="152.4mm" version="1.1" style="shape-rendering:geometricPrecision; text-rendering:geometricPrecision; image-rendering:optimizeQuality; fill-rule:evenodd; clip-rule:evenodd"
viewBox="0 0 15240 15240"
 xmlns:xlink="http://www.w3.org/1999/xlink">
 <defs>
  <style type="text/css">
   <![CDATA[
    .fil0 {fill:#F7631C}
   ]]>
  </style>
 </defs>
 <g id="Layer_x0020_1">
  <metadata id="CorelCorpID_0Corel-Layer"/>
  <g id="_105553853962272">
   <path class="fil0" d="M8519.47 10512.42l0 0zm-1798.94 0l0 0zm0 0c-279.27,-23.24 -706.1,-285.65 -927.7,-447.96 -116.5,-85.32 -187.2,-91.17 -201.05,-257.5 171.78,-45.87 271.43,-263.68 493.83,-282.19 37.27,159.99 198.12,402.21 281.66,529.63 117.99,179.96 232.31,277.4 353.26,458.02zm1798.94 0c130.75,-195.25 552.42,-633.5 634.92,-987.65 125.79,10.47 198.41,80.43 282.19,141.1 85.11,61.63 157.06,116.19 246.91,176.36 -144.39,215.63 -828.35,642.26 -1164.02,670.19zm-811.28 141.1l0 -1587.31c260.41,0 1269.84,194.64 1269.84,352.74 0,220.73 -590.55,1234.57 -1269.84,1234.57zm-1446.21 -1199.3c0,-154.43 389.31,-226.53 540.96,-270.32 197.96,-57.17 493.57,-117.69 728.88,-117.69l0 1587.31c-699.34,0 -1269.84,-1057.47 -1269.84,-1199.3zm2821.87 -246.91c-268.8,-128.98 -726.71,-271.84 -1031.98,-308.41 -421.51,-50.51 -343.68,246.18 -343.68,-1102.53 0,-81.27 24.54,-105.82 105.82,-105.82l1410.93 0c214.72,0 80.7,520.58 25.73,837.02l-166.82 679.74zm740.74 493.83l-564.38 -388.01c16.5,-198.26 282.19,-841.89 282.19,-1622.58l1128.75 0c0,579.73 -209.27,1212.18 -518.76,1632.92 -112.15,152.46 -175.83,275.9 -327.8,377.67zm-5255.73 -1904.77c0,-81.27 24.54,-105.82 105.82,-105.82 1440.7,0 934.28,-180.01 1113.3,826.74 28.76,161.74 56.18,253.05 92.97,400.86 27.01,108.53 89.02,276.98 98.84,394.98l-564.37 388.01c-408.49,-273.54 -846.56,-1311.23 -846.56,-1904.77zm1446.2 -105.82l1410.94 0c81.28,0 105.82,24.55 105.82,105.82 0,1798.65 179.73,664.63 -1375.66,1410.94 -11.35,-136.37 -68.43,-246.59 -99.19,-359.37 -36.15,-132.53 -54.38,-244.76 -77.65,-380.91 -24.32,-142.35 -22.69,-251.81 -45.2,-413.94 -12.87,-92.67 -97.52,-362.54 80.94,-362.54zm1693.13 -1340.38c732.44,0 1053.82,-242.49 1375.66,-317.46 138.06,592.59 246.91,762.92 246.91,1481.48l-1622.57 0 0 -1164.02zm-1552.03 -317.46c283.48,6.31 300.73,228.01 1375.66,317.46l0 1164.02 -1622.58 0c0,-627.01 117.46,-925.8 246.92,-1481.48zm3104.05 -105.83l599.65 -423.28c216.17,322.81 325.24,396.57 529.72,810.67 172.71,349.78 281.57,747.55 281.57,1199.92l-1128.75 0c0,-311.71 -90.5,-876.4 -175.95,-1199.71 -38.16,-144.37 -86.06,-230.26 -106.24,-387.6zm-3633.15 1587.31l-1058.2 0c0,-585.12 216.23,-1165.71 509.35,-1607.05 101.71,-153.14 201.49,-253.53 301.93,-403.54 162.25,37.8 599.65,406.25 599.65,423.28 0,61.46 -240.81,798.59 -247.81,1198.4 -2.96,168.91 58.26,388.91 -104.92,388.91zm2222.22 -1375.66l-141.09 0 0 -1481.49c0,-121.07 56.59,-97.92 166.73,-68.77 618.95,163.8 888.24,760.06 1138.38,1232.79 -304.26,161 -702.44,317.47 -1164.02,317.47zm-317.46 -1481.49l0 1481.49c-504.2,0 -888.68,-115.78 -1269.84,-317.47 28.5,-342.55 569.38,-989.58 844.89,-1130.42 69.59,-35.57 133.7,-64.65 229.79,-93.77 124.54,-37.73 195.16,-65.09 195.16,60.17zm952.38 35.28c196.82,4.38 501.8,175.16 658.78,258.33 107.39,56.89 486.67,338.37 540.51,411.86 -40.79,55.68 -375.83,339.98 -529.1,352.73 -105.18,-451.47 -561.63,-860.8 -670.19,-1022.92zm-2398.59 1022.92c-206.4,-55.11 -305.54,-267.18 -493.83,-317.46l0 -105.82c135.02,-36.05 668.8,-558.43 1164.03,-599.64 -76.98,114.96 -564.1,567.51 -670.2,1022.92zm-1728.39 1869.49c0,1092.65 368.41,1594.2 901.49,2273.11 160.91,204.92 657.84,552.66 908.82,678.48 1067.05,534.9 2386.01,417.76 3360.06,-285.62 532.2,-384.3 778.83,-717.99 1073.22,-1325.37 418.44,-863.35 346.74,-1826.05 -25.14,-2691.33 -89.46,-208.15 -323.8,-562.92 -463.41,-735.88 -141.04,-174.71 -150.91,-225.2 -267.09,-297.29 -6.57,-4.07 -15.99,-8.63 -22.57,-12.7 -416.92,-258.16 -135.84,-174.91 -891.15,-555.05 -1135.56,-571.52 -2709.44,-241.29 -3613.12,667.62 -268.59,270.14 -515.46,600.2 -664.31,958.26 -163.65,393.68 -296.8,783.11 -296.8,1325.77z"/>
   <path class="fil0" d="M7179.09 2717.01c104.31,0 369.62,-307.88 423.28,-388.01 110.1,73.73 333.54,388.01 458.55,388.01 362.33,0 -362.34,-599.65 -423.28,-599.65 -156.9,0 -238.52,151.65 -361.6,273.33 -41.06,40.58 -379.98,326.32 -96.95,326.32z"/>
   <path class="fil0" d="M3828.12 4515.95c70.66,-125.78 35.27,-476.17 35.27,-634.92 492.94,0 560.68,57.73 670.19,-105.82 -118.08,-161.17 -340.88,-105.82 -705.46,-105.82 -187.81,0 -141.81,233.3 -141.53,423.15 0.62,434.57 -37.2,381.77 141.53,423.41z"/>
   <path class="fil0" d="M3687.02 10829.88c0,835.55 -77.05,705.22 423.31,705.75 435.24,0.47 381.96,35.89 423.25,-141.37 -125.78,-70.67 -476.17,-35.28 -634.92,-35.28l0 -458.55c0,-261.54 -211.64,-215.85 -211.64,-70.55z"/>
   <path class="fil0" d="M10706.42 3810.48c179.73,120.36 249.8,70.55 670.2,70.55 0,447.33 -53.7,543.89 70.54,634.92 167.75,-44.79 105.82,-115.24 105.82,-705.47 0,-181.69 -446.36,-141.09 -634.92,-141.09 -154.84,0 -159.39,42.34 -211.64,141.09z"/>
   <path class="fil0" d="M12505.36 7090.91c6.06,271.7 194.18,239.64 388.01,529.1 -12.49,18.64 -647.91,612.63 -269.34,513.89 60.66,-15.82 239.12,-197.94 286.31,-250.01 91.28,-100.7 193.66,-163.26 229.94,-299.16 -80.08,-119.6 -185.23,-201.78 -290.93,-308.72 -113.97,-115.32 -182.5,-243.15 -343.99,-185.1z"/>
   <path class="fil0" d="M7602.37 13122.65c130.84,-34.94 184.46,-131.03 273.38,-220.44 42.43,-42.66 251.47,-241.63 265.96,-272.11 163.07,-343.22 -413.06,36.9 -468.8,245.64 -231.14,-61.72 -534.67,-588.7 -588.81,-316.59 -19.73,99.17 465.82,528.38 518.27,563.5z"/>
   <path class="fil0" d="M2099.72 7584.73c26.08,97.65 644.95,803.68 624.77,469.67 -3.77,-62.42 -140.2,-205.98 -198.6,-260.91 -5.29,-4.99 -13.22,-11.78 -18.65,-16.62l-160.6 -156.86c193.83,-289.46 381.95,-257.4 388,-529.1 -105.12,-22.27 -92.48,-39.33 -183.13,25.73l-451.79 468.09z"/>
   <path class="fil0" d="M11376.62 11253.16c0,216.32 -425.42,49.39 -593.35,117.83 -81.85,33.36 -147.43,160.18 130.01,168.08 77.44,2.21 171.16,-3.82 251.93,-3.36 461.18,2.61 387.77,118.55 387.77,-705.83 0,-117.31 -63.33,-103.3 -176.36,-105.82l0 529.1z"/>
   <path class="fil0" d="M12046.81 7584.73c0,236.8 530.55,114.51 634.92,105.82l0 -141.09c-84.96,-47.73 -634.92,-88.95 -634.92,35.27z"/>
   <path class="fil0" d="M4004.48 11112.07c0,349.7 529.1,-236.62 529.1,-282.19 0,-269.56 -281.24,15.62 -326.42,61.59 -37.71,38.37 -202.68,185.78 -202.68,220.6z"/>
   <path class="fil0" d="M10706.42 4445.4c190.31,132.25 120.95,84.15 323.21,-100.07 276.35,-251.7 230.79,-215.95 135.35,-358.48 -145.65,77.07 -141.2,87.44 -255.84,202.72 -85.16,85.63 -169.13,130.05 -202.72,255.83z"/>
   <path class="fil0" d="M7531.82 3175.56c137.09,29.04 39.27,29.04 176.37,0 0,-406.57 77.76,-634.92 -141.1,-634.92 -67.81,141.33 -35.27,435.03 -35.27,634.92z"/>
   <path class="fil0" d="M4011.54 4064.45c31.72,159.39 324.68,403.06 416.22,451.5l113.38 -98.26c-117.05,-171.07 -287.33,-336.24 -466.11,-430.84l-63.49 77.6z"/>
   <path class="fil0" d="M11129.7 11217.89c290.29,0 -88.9,-318.02 -97.03,-326.25 -112.13,-113.51 -100.37,-163.33 -290.97,-167.58 -41.43,195.61 -4.85,145.97 131.19,256.73 197.85,161.08 120.72,237.1 256.81,237.1z"/>
   <path class="fil0" d="M2558.28 7584.73l0 70.55c84.95,47.73 634.92,88.95 634.92,-35.27l0 -70.55c-84.96,-47.73 -634.92,-88.95 -634.92,35.27z"/>
   <path class="fil0" d="M7531.82 12135c0,503.31 -42.81,529.1 141.09,529.1 47.73,-84.96 88.95,-634.92 -35.27,-634.92l-70.55 0c-24.17,43.03 -35.27,37.73 -35.27,105.82z"/>
  </g>
 </g>
</svg>
